<svg xmlns="http://www.w3.org/2000/svg" xmlns:xlink="http://www.w3.org/1999/xlink" width="500" zoomAndPan="magnify" viewBox="0 0 375 149.999998" height="200" preserveAspectRatio="xMidYMid meet" version="1.0"><defs><g/></defs><path fill="#ffffff" d="M 102.023438 88.480469 C 102.597656 87.863281 102.96875 87.023438 102.941406 86.007812 C 102.867188 63.667969 102.296875 41.375 102.820312 19.007812 C 102.867188 16.285156 99.941406 15 97.730469 16.089844 C 89.367188 20.171875 80.359375 23.113281 71.699219 26.53125 C 63.558594 29.769531 55.46875 33.035156 47.425781 36.5 C 46.285156 35.410156 44.027344 35.808594 44.003906 37.859375 C 43.855469 50.75 44.546875 63.640625 45.46875 76.480469 C 46.261719 87.589844 46.882812 99.023438 48.617188 110.105469 C 40.179688 110.574219 30.699219 112.40625 25.042969 118.667969 C 18.886719 125.445312 22.039062 135.195312 30.304688 138.410156 C 38.867188 141.75 50.007812 136.578125 55.269531 129.625 C 57.777344 126.335938 59.164062 122.082031 57.476562 118.097656 C 57.132812 117.304688 56.710938 116.5625 56.1875 115.921875 C 56.660156 115.277344 56.933594 114.507812 56.882812 113.742188 C 55.714844 101.101562 53.308594 88.507812 51.871094 75.886719 C 51.300781 70.890625 50.777344 65.867188 50.304688 60.871094 C 53.65625 59.730469 56.832031 58 60.058594 56.589844 C 64.105469 54.808594 68.175781 53.152344 72.292969 51.542969 C 76.140625 50.035156 80.011719 48.625 83.933594 47.3125 C 87.679688 46.050781 91.625 45.160156 95.273438 43.652344 C 94.976562 55.699219 94.851562 67.75 95.199219 79.75 C 88.175781 77.519531 80.285156 79.15625 75.199219 85.289062 C 68.523438 93.332031 70.011719 105.601562 80.558594 109.339844 C 90.039062 112.703125 102.125 106.492188 103.785156 96.300781 C 104.257812 93.15625 103.515625 90.535156 102.023438 88.480469 Z M 31.617188 127.769531 C 31.617188 127.695312 31.644531 127.621094 31.644531 127.546875 C 31.867188 129.28125 32.613281 130.914062 33.878906 132.125 C 32.3125 131.679688 31.320312 130.394531 31.617188 127.769531 Z M 51.96875 125.371094 C 52.414062 124.480469 52.8125 123.566406 53.0625 122.648438 C 52.910156 123.613281 52.515625 124.503906 51.96875 125.371094 Z M 93.214844 36.597656 C 89.046875 37.292969 84.851562 39.195312 80.90625 40.65625 C 76.933594 42.140625 72.988281 43.726562 69.066406 45.40625 C 62.714844 48.128906 55.59375 51 49.710938 54.980469 C 49.214844 49.835938 48.742188 44.664062 48.222656 39.519531 C 56.933594 36.847656 65.542969 33.953125 74.15625 31.03125 C 81.351562 28.582031 88.550781 25.738281 95.84375 23.535156 C 95.671875 27.988281 95.523438 32.46875 95.398438 36.921875 C 94.753906 36.597656 93.984375 36.449219 93.214844 36.597656 Z M 95.375 98.578125 C 94.804688 99.367188 94.035156 100.085938 93.140625 100.703125 C 94.730469 99.097656 95.921875 97.191406 96.390625 95.210938 C 96.539062 94.988281 96.664062 94.742188 96.789062 94.519531 C 96.839844 95.78125 96.390625 97.191406 95.375 98.578125 Z M 95.375 98.578125 " fill-opacity="1" fill-rule="nonzero"/><g fill="#ffffff" fill-opacity="1"><g transform="translate(126.721951, 96.967237)"><g><path d="M 26.53125 -38.015625 C 23.445312 -38.015625 21.039062 -36.75 19.3125 -34.21875 C 17.59375 -31.695312 16.734375 -28.21875 16.734375 -23.78125 C 16.734375 -14.550781 20.238281 -9.9375 27.25 -9.9375 C 29.375 -9.9375 31.429688 -10.226562 33.421875 -10.8125 C 35.410156 -11.40625 37.410156 -12.117188 39.421875 -12.953125 L 39.421875 -2 C 35.421875 -0.226562 30.894531 0.65625 25.84375 0.65625 C 18.601562 0.65625 13.050781 -1.441406 9.1875 -5.640625 C 5.332031 -9.835938 3.40625 -15.90625 3.40625 -23.84375 C 3.40625 -28.8125 4.335938 -33.175781 6.203125 -36.9375 C 8.078125 -40.695312 10.769531 -43.585938 14.28125 -45.609375 C 17.789062 -47.628906 21.921875 -48.640625 26.671875 -48.640625 C 31.847656 -48.640625 36.796875 -47.515625 41.515625 -45.265625 L 37.546875 -35.0625 C 35.773438 -35.894531 34.003906 -36.59375 32.234375 -37.15625 C 30.460938 -37.726562 28.5625 -38.015625 26.53125 -38.015625 Z M 26.53125 -38.015625 "/></g></g></g><g fill="#ffffff" fill-opacity="1"><g transform="translate(170.310834, 96.967237)"><g><path d="M 30.890625 0 L 29.296875 -4.625 L 28.53125 -4.625 C 27.457031 -2.914062 25.960938 -1.609375 24.046875 -0.703125 C 22.140625 0.203125 19.894531 0.65625 17.3125 0.65625 C 13.226562 0.65625 10.046875 -0.53125 7.765625 -2.90625 C 5.492188 -5.28125 4.359375 -8.628906 4.359375 -12.953125 L 4.359375 -37.15625 L 17.1875 -37.15625 L 17.1875 -16.859375 C 17.1875 -14.429688 17.53125 -12.59375 18.21875 -11.34375 C 18.90625 -10.101562 20.035156 -9.484375 21.609375 -9.484375 C 23.816406 -9.484375 25.390625 -10.347656 26.328125 -12.078125 C 27.273438 -13.816406 27.75 -16.753906 27.75 -20.890625 L 27.75 -37.15625 L 40.578125 -37.15625 L 40.578125 0 Z M 30.890625 0 "/></g></g></g><g fill="#ffffff" fill-opacity="1"><g transform="translate(215.310037, 96.967237)"><g><path d="M 22.625 -9.484375 C 24.351562 -9.484375 26.421875 -9.910156 28.828125 -10.765625 L 28.828125 -1.40625 C 27.097656 -0.664062 25.453125 -0.140625 23.890625 0.171875 C 22.328125 0.492188 20.5 0.65625 18.40625 0.65625 C 14.09375 0.65625 10.984375 -0.394531 9.078125 -2.5 C 7.179688 -4.613281 6.234375 -7.859375 6.234375 -12.234375 L 6.234375 -27.546875 L 1.734375 -27.546875 L 1.734375 -32.765625 L 7.453125 -36.796875 L 10.765625 -44.609375 L 19.15625 -44.609375 L 19.15625 -37.15625 L 28.265625 -37.15625 L 28.265625 -27.546875 L 19.15625 -27.546875 L 19.15625 -13.09375 C 19.15625 -10.6875 20.3125 -9.484375 22.625 -9.484375 Z M 22.625 -9.484375 "/></g></g></g><g fill="#ffffff" fill-opacity="1"><g transform="translate(246.205991, 96.967237)"><g><path d="M 17.3125 0 L 4.5 0 L 4.5 -37.15625 L 17.3125 -37.15625 Z M 4.171875 -46.40625 C 4.171875 -48.332031 4.703125 -49.765625 5.765625 -50.703125 C 6.835938 -51.648438 8.566406 -52.125 10.953125 -52.125 C 13.335938 -52.125 15.078125 -51.640625 16.171875 -50.671875 C 17.265625 -49.710938 17.8125 -48.289062 17.8125 -46.40625 C 17.8125 -42.644531 15.523438 -40.765625 10.953125 -40.765625 C 6.429688 -40.765625 4.171875 -42.644531 4.171875 -46.40625 Z M 4.171875 -46.40625 "/></g></g></g><g fill="#ffffff" fill-opacity="1"><g transform="translate(268.049627, 96.967237)"><g><path d="M 27.125 -27.546875 L 19.21875 -27.546875 L 19.21875 0 L 6.390625 0 L 6.390625 -27.546875 L 1.46875 -27.546875 L 1.46875 -33.84375 L 6.65625 -37 L 6.65625 -37.625 C 6.65625 -42.519531 7.65625 -46.035156 9.65625 -48.171875 C 11.65625 -50.316406 14.863281 -51.390625 19.28125 -51.390625 C 20.988281 -51.390625 22.601562 -51.257812 24.125 -51 C 25.644531 -50.738281 27.410156 -50.28125 29.421875 -49.625 L 26.671875 -41.328125 C 25.085938 -41.765625 23.546875 -41.984375 22.046875 -41.984375 C 21.054688 -41.984375 20.335938 -41.679688 19.890625 -41.078125 C 19.441406 -40.472656 19.21875 -39.492188 19.21875 -38.140625 L 19.21875 -37.15625 L 27.125 -37.15625 Z M 27.125 -27.546875 "/></g></g></g><g fill="#ffffff" fill-opacity="1"><g transform="translate(295.796948, 96.967237)"><g><path d="M -0.0625 -37.15625 L 13.453125 -37.15625 L 19.75 -15.84375 C 20.050781 -14.726562 20.257812 -13.382812 20.375 -11.8125 L 20.625 -11.8125 C 20.800781 -13.320312 21.066406 -14.644531 21.421875 -15.78125 L 27.875 -37.15625 L 40.96875 -37.15625 L 26.265625 2.359375 C 24.390625 7.390625 22.078125 10.941406 19.328125 13.015625 C 16.585938 15.097656 13.007812 16.140625 8.59375 16.140625 C 6.882812 16.140625 5.132812 15.953125 3.34375 15.578125 L 3.34375 5.515625 C 4.5 5.773438 5.820312 5.90625 7.3125 5.90625 C 8.445312 5.90625 9.441406 5.6875 10.296875 5.25 C 11.148438 4.8125 11.894531 4.191406 12.53125 3.390625 C 13.164062 2.597656 13.84375 1.289062 14.5625 -0.53125 Z M -0.0625 -37.15625 "/></g></g></g></svg>